# xmcd
#
# Track frame offsets:
#	150
#	15479
#	29764
#	43974
#	59000
#	73369
#	90426
#	103430
#	116884
#	132174
#	148568
#	158050
#	171264
#	183515
#	197992
#	209793
#
# Disc length: 2971 seconds
#
# Revision: 0
# Processed by: cddbd v1.5.2PL0 Copyright (c) Steve Scherf et al.
# Submitted via: EasyCDDAExtractor 16.0.6.1
#
DISCID=040b9910
DTITLE=Denis Sembach - Country love
DYEAR=2009
DGENRE=Instrumental
TTITLE0=Blue bayou (slow)
TTITLE1=Stand by your man (fox)
TTITLE2=Something stupid (slow)
TTITLE3=Somewhere between (valse lente)
TTITLE4=Red river valley (fox)
TTITLE5=California blue (slow)
TTITLE6=Lucille (valse)
TTITLE7=Quando minamorro (slow)
TTITLE8=Besame muchos (slow)
TTITLE9=Mexican girls (boléro)
TTITLE10=Some broken hearts never mind (fox)
TTITLE11=Massachusetts (slow)
TTITLE12=Che sera (slow)
TTITLE13=Tom Dooley (fox)
TTITLE14=Home on the range (valse lente)
TTITLE15=Jambalaya (foxtrott)
EXTD=
EXTT0=
EXTT1=
EXTT2=
EXTT3=
EXTT4=
EXTT5=
EXTT6=
EXTT7=
EXTT8=
EXTT9=
EXTT10=
EXTT11=
EXTT12=
EXTT13=
EXTT14=
EXTT15=
PLAYORDER=
